<?xml version="1.0" encoding="UTF-8"?>
<svg xmlns="http://www.w3.org/2000/svg" xmlns:cc="http://creativecommons.org/ns#" xmlns:dc="http://purl.org/dc/elements/1.1/" xmlns:rdf="http://www.w3.org/1999/02/22-rdf-syntax-ns#" xmlns:se="https://standardebooks.org/vocab/1.0" xmlns:svg="http://www.w3.org/2000/svg" id="svg2" version="1.1" viewBox="0 0 1400 440" se:generated-from="7c29ab8d41811d49ed374eff1dbaca48040e3633">
	<metadata id="metadata16">
		<rdf:RDF>
			<cc:Work rdf:about="">
				<dc:format>image/svg+xml</dc:format>
				<dc:type rdf:resource="http://purl.org/dc/dcmitype/StillImage"/>
			</cc:Work>
		</rdf:RDF>
	</metadata>
	<defs id="defs14"/>
	<title id="title4">The titlepage for the Standard Ebooks edition of Khaled: A Tale of Arabia, by F. Marion Crawford</title>
	<g id="text6" style="font-size:93.56725311px;font-family:'League Spartan';letter-spacing:5px;text-anchor:middle;fill:#000000">
		<path d="m 547.34137,130 -35.92982,-40.608188 31.06432,-36.584796 -21.33333,0 -26.47953,31.532164 0,-31.532164 -17.59065,0 0,77.192984 17.59065,0 0,-32.748539 L 523.10745,130 l 24.23392,0 z" id="path19" style="font-size:93.56725311px;font-family:'League Spartan';letter-spacing:5px;text-anchor:middle;fill:#000000"/>
		<path d="m 573.31067,99.029239 24.88889,0 0,30.970761 17.59064,0 0,-77.192984 -17.59064,0 0,30.783626 -24.88889,0 0,-30.783626 -17.59065,0 0,77.192984 17.59065,0 0,-30.970761 z" id="path21" style="font-size:93.56725311px;font-family:'League Spartan';letter-spacing:5px;text-anchor:middle;fill:#000000"/>
		<path d="m 671.19663,52.807016 -16.2807,0 L 623.75803,130 l 18.90059,0 5.7076,-15.4386 29.38012,0 5.7076,15.4386 18.90059,0 -31.1579,-77.192984 z m 0.5614,46.31579 -17.40351,0 8.60819,-22.45614 0.18714,0 8.60818,22.45614 z" id="path23" style="font-size:93.56725311px;font-family:'League Spartan';letter-spacing:5px;text-anchor:middle;fill:#000000"/>
		<path d="m 727.86476,52.807016 -17.59064,0 0,77.192984 44.16374,0 0,-15.4386 -26.5731,0 0,-61.754384 z" id="path25" style="font-size:93.56725311px;font-family:'League Spartan';letter-spacing:5px;text-anchor:middle;fill:#000000"/>
		<path d="m 812.25219,52.807016 -44.16374,0 0,77.192984 44.16374,0 0,-15.4386 -26.5731,0 0,-15.532161 25.45029,0 0,-15.438597 -25.45029,0 0,-15.345029 26.5731,0 0,-15.438597 z" id="path27" style="font-size:93.56725311px;font-family:'League Spartan';letter-spacing:5px;text-anchor:middle;fill:#000000"/>
		<path d="m 827.36478,52.807016 0,77.192984 22.36258,0 c 21.23976,0 38.92397,-16.09357 38.92397,-38.643276 0,-22.45614 -17.77777,-38.549708 -38.92397,-38.549708 l -22.36258,0 z m 17.59065,61.473684 0,-45.754385 2.71345,0 c 13.09941,0 21.9883,10.011696 21.9883,22.923977 -0.0936,12.912278 -8.98245,22.830408 -21.9883,22.830408 l -2.71345,0 z" id="path29" style="font-size:93.56725311px;font-family:'League Spartan';letter-spacing:5px;text-anchor:middle;fill:#000000"/>
		<path d="m 912.11037,78.163742 c -5.89474,0 -10.66667,4.77193 -10.66667,10.760234 0,5.894737 4.77193,10.666667 10.66667,10.666667 5.9883,0 10.76023,-4.77193 10.76023,-10.666667 0,-5.988304 -4.77193,-10.760234 -10.76023,-10.760234 z m 0,31.812868 c -5.89474,0 -10.66667,4.77193 -10.66667,10.76023 0,5.89474 4.77193,10.66667 10.66667,10.66667 5.9883,0 10.76023,-4.77193 10.76023,-10.66667 0,-5.9883 -4.77193,-10.76023 -10.76023,-10.76023 z" id="path31" style="font-size:93.56725311px;font-family:'League Spartan';letter-spacing:5px;text-anchor:middle;fill:#000000"/>
	</g>
	<g id="text8" style="font-size:93.56725311px;font-family:'League Spartan';letter-spacing:5px;text-anchor:middle;fill:#000000">
		<path d="m 262.23464,152.80702 -16.2807,0 -31.1579,77.19298 18.90059,0 5.7076,-15.4386 29.38012,0 5.7076,15.4386 18.90059,0 -31.1579,-77.19298 z m 0.56141,46.31579 -17.40351,0 8.60818,-22.45614 0.18714,0 8.60819,22.45614 z" id="path34" style="font-size:93.56725311px;font-family:'League Spartan';letter-spacing:5px;text-anchor:middle;fill:#000000"/>
		<path d="m 322.46271,168.24561 18.33919,0 0,61.75439 17.59064,0 0,-61.75439 18.33918,0 0,-15.43859 -54.26901,0 0,15.43859 z" id="path36" style="font-size:93.56725311px;font-family:'League Spartan';letter-spacing:5px;text-anchor:middle;fill:#000000"/>
		<path d="m 422.70248,152.80702 -16.28071,0 L 375.26388,230 l 18.90058,0 5.70761,-15.4386 29.38011,0 5.70761,15.4386 18.90058,0 -31.15789,-77.19298 z m 0.5614,46.31579 -17.40351,0 8.60819,-22.45614 0.18713,0 8.60819,22.45614 z" id="path38" style="font-size:93.56725311px;font-family:'League Spartan';letter-spacing:5px;text-anchor:middle;fill:#000000"/>
		<path d="m 479.37061,152.80702 -17.59065,0 0,77.19298 44.16375,0 0,-15.4386 -26.5731,0 0,-61.75438 z" id="path40" style="font-size:93.56725311px;font-family:'League Spartan';letter-spacing:5px;text-anchor:middle;fill:#000000"/>
		<path d="m 563.75804,152.80702 -44.16375,0 0,77.19298 44.16375,0 0,-15.4386 -26.5731,0 0,-15.53216 25.45029,0 0,-15.4386 -25.45029,0 0,-15.34503 26.5731,0 0,-15.43859 z" id="path42" style="font-size:93.56725311px;font-family:'League Spartan';letter-spacing:5px;text-anchor:middle;fill:#000000"/>
		<path d="m 605.99342,191.35672 c 0,22.54971 16.09357,40.04679 38.92398,40.04679 22.17544,0 38.83041,-17.49708 38.83041,-40.04679 0,-22.5497 -17.40351,-39.95321 -38.83041,-39.95321 -21.23977,0 -38.92398,17.40351 -38.92398,39.95321 z m 18.99415,0 c 0,-11.50877 6.36258,-23.01754 19.92983,-23.01754 13.66082,0 19.83626,11.50877 19.83626,23.01754 0,11.50878 -5.80117,23.01755 -19.83626,23.01755 -14.40936,0 -19.92983,-11.50877 -19.92983,-23.01755 z" id="path44" style="font-size:93.56725311px;font-family:'League Spartan';letter-spacing:5px;text-anchor:middle;fill:#000000"/>
		<path d="m 741.14107,152.80702 -44.63158,0 0,77.19298 17.59064,0 0,-30.97076 24.98246,0 0,-15.4386 -24.98246,0 0,-15.34503 27.04094,0 0,-15.43859 z" id="path46" style="font-size:93.56725311px;font-family:'League Spartan';letter-spacing:5px;text-anchor:middle;fill:#000000"/>
		<path d="m 824.29604,152.80702 -16.2807,0 L 776.85745,230 l 18.90058,0 5.7076,-15.4386 29.38012,0 5.7076,15.4386 18.90059,0 -31.1579,-77.19298 z m 0.56141,46.31579 -17.40351,0 8.60819,-22.45614 0.18713,0 8.60819,22.45614 z" id="path48" style="font-size:93.56725311px;font-family:'League Spartan';letter-spacing:5px;text-anchor:middle;fill:#000000"/>
		<path d="m 863.37353,152.80702 0,77.19298 17.59064,0 0,-30.50292 23.57895,30.50292 22.36257,0 -26.5731,-31.90643 c 9.4503,-2.99416 15.81287,-10.76024 15.81287,-22.36258 0,-15.15789 -10.8538,-22.92397 -25.16959,-22.92397 l -27.60234,0 z m 17.59064,34.24561 0,-20.21053 2.05848,0 c 6.64328,0 14.59649,0.46784 14.59649,10.10527 0,9.63742 -7.95321,10.10526 -14.59649,10.10526 l -2.05848,0 z" id="path50" style="font-size:93.56725311px;font-family:'League Spartan';letter-spacing:5px;text-anchor:middle;fill:#000000"/>
		<path d="m 974.64693,152.80702 -16.2807,0 L 927.20834,230 l 18.90058,0 5.7076,-15.4386 29.38012,0 5.7076,15.4386 18.90056,0 -31.15787,-77.19298 z m 0.56141,46.31579 -17.40351,0 8.60819,-22.45614 0.18713,0 8.60819,22.45614 z" id="path52" style="font-size:93.56725311px;font-family:'League Spartan';letter-spacing:5px;text-anchor:middle;fill:#000000"/>
		<path d="m 1013.7244,152.80702 0,77.19298 29.2866,0 c 16,0 25.2631,-8.79532 25.2631,-21.52047 0,-12.44444 -6.8304,-17.77778 -16.4678,-19.46199 6.5497,-3.36842 9.6374,-9.45029 9.6374,-16.5614 0,-14.69006 -10.4795,-19.64912 -23.7661,-19.64912 l -23.9532,0 z m 17.5907,30.22222 0,-16.65497 1.4035,0 c 7.6725,0 11.6959,2.33918 11.6959,7.85965 0,6.45614 -4.117,8.79532 -11.6959,8.79532 l -1.4035,0 z m 0,33.40351 0,-18.24562 5.5204,0 c 8.3275,0 12.9123,2.52632 12.9123,9.63743 0,6.08187 -4.5848,8.60819 -12.9123,8.60819 l -5.5204,0 z" id="path54" style="font-size:93.56725311px;font-family:'League Spartan';letter-spacing:5px;text-anchor:middle;fill:#000000"/>
		<path d="m 1098.6323,152.80702 -17.5906,0 0,77.19298 17.5906,0 0,-77.19298 z" id="path56" style="font-size:93.56725311px;font-family:'League Spartan';letter-spacing:5px;text-anchor:middle;fill:#000000"/>
		<path d="m 1154.1206,152.80702 -16.2807,0 L 1106.682,230 l 18.9006,0 5.7076,-15.4386 29.3801,0 5.7076,15.4386 18.9006,0 -31.1579,-77.19298 z m 0.5614,46.31579 -17.4035,0 8.6082,-22.45614 0.1871,0 8.6082,22.45614 z" id="path58" style="font-size:93.56725311px;font-family:'League Spartan';letter-spacing:5px;text-anchor:middle;fill:#000000"/>
	</g>
	<g id="text10" style="font-size:70.17543793px;font-family:'League Spartan';letter-spacing:5px;text-anchor:middle;fill:#000000">
		<path d="m 273.24068,332.10526 -33.47368,0 0,57.89474 13.19298,0 0,-23.22807 18.73684,0 0,-11.57895 -18.73684,0 0,-11.50877 20.2807,0 0,-11.57895 z" id="path61" style="font-size:70.17543793px;font-family:'League Spartan';letter-spacing:5px;text-anchor:middle;fill:#000000"/>
		<path d="m 288.95121,374.98246 c -4.42105,0 -8,3.57894 -8,8.07017 0,4.42105 3.57895,8 8,8 4.49123,0 8.07018,-3.57895 8.07018,-8 0,-4.49123 -3.57895,-8.07017 -8.07018,-8.07017 z" id="path63" style="font-size:70.17543793px;font-family:'League Spartan';letter-spacing:5px;text-anchor:middle;fill:#000000"/>
		<path d="m 382.53345,390 13.19298,0 -5.19298,-57.89474 -14.03509,0 -12.84211,33.40351 -12.8421,-33.40351 -14.03509,0 -5.19298,57.89474 13.19298,0 2.73684,-34.31579 0.35088,0 11.85965,33.96491 7.85965,0 11.85965,-33.96491 0.35088,0 L 382.53345,390 Z" id="path65" style="font-size:70.17543793px;font-family:'League Spartan';letter-spacing:5px;text-anchor:middle;fill:#000000"/>
		<path d="m 435.41501,332.10526 -12.21052,0 L 399.83607,390 l 14.17544,0 4.2807,-11.57895 22.03509,0 4.2807,11.57895 14.17544,0 -23.36843,-57.89474 z m 0.42106,34.73685 -13.05263,0 6.45614,-16.84211 0.14035,0 6.45614,16.84211 z" id="path67" style="font-size:70.17543793px;font-family:'League Spartan';letter-spacing:5px;text-anchor:middle;fill:#000000"/>
		<path d="m 465.97315,332.10526 0,57.89474 13.19298,0 0,-22.87719 17.68421,22.87719 16.77193,0 -19.92983,-23.92982 c 7.08772,-2.24562 11.85965,-8.07018 11.85965,-16.77193 0,-11.36842 -8.14035,-17.19299 -18.87719,-17.19299 l -20.70175,0 z m 13.19298,25.68421 0,-15.15789 1.54386,0 c 4.98245,0 10.94737,0.35088 10.94737,7.57895 0,7.22807 -5.96492,7.57894 -10.94737,7.57894 l -1.54386,0 z" id="path69" style="font-size:70.17543793px;font-family:'League Spartan';letter-spacing:5px;text-anchor:middle;fill:#000000"/>
		<path d="m 534.46764,332.10526 -13.19298,0 0,57.89474 13.19298,0 0,-57.89474 z" id="path71" style="font-size:70.17543793px;font-family:'League Spartan';letter-spacing:5px;text-anchor:middle;fill:#000000"/>
		<path d="m 545.33387,361.01754 c 0,16.91228 12.07017,30.03509 29.19298,30.03509 16.63158,0 29.12281,-13.12281 29.12281,-30.03509 0,-16.91228 -13.05263,-29.96491 -29.12281,-29.96491 -15.92982,0 -29.19298,13.05263 -29.19298,29.96491 z m 14.24561,0 c 0,-8.63157 4.77193,-17.26315 14.94737,-17.26315 10.24562,0 14.87719,8.63158 14.87719,17.26315 0,8.63158 -4.35087,17.26316 -14.87719,17.26316 -10.80702,0 -14.94737,-8.63158 -14.94737,-17.26316 z" id="path73" style="font-size:70.17543793px;font-family:'League Spartan';letter-spacing:5px;text-anchor:middle;fill:#000000"/>
		<path d="m 627.66393,354.07018 0.14035,0 23.01755,35.92982 13.19298,0 0,-57.89474 -13.19298,0 0,35.92983 -0.14036,0 -23.01754,-35.92983 -13.19298,0 0,57.89474 13.19298,0 0,-35.92982 z" id="path75" style="font-size:70.17543793px;font-family:'League Spartan';letter-spacing:5px;text-anchor:middle;fill:#000000"/>
		<path d="m 730.25053,378.07018 c -13.26316,0 -19.08772,-9.26316 -19.08772,-17.05264 0,-7.71929 5.82456,-16.98245 19.08772,-16.98245 6.73684,0 11.36842,3.57895 11.36842,3.57895 l 5.61404,-11.22807 c 0,0 -6.45614,-5.33334 -19.01755,-5.33334 -16.42105,0 -31.36842,13.47369 -31.36842,30.10527 0,16.5614 15.01755,29.89473 31.36842,29.89473 12.56141,0 19.01755,-5.33333 19.01755,-5.33333 l -5.61404,-11.22807 c 0,0 -4.63158,3.57895 -11.36842,3.57895 z" id="path77" style="font-size:70.17543793px;font-family:'League Spartan';letter-spacing:5px;text-anchor:middle;fill:#000000"/>
		<path d="m 757.34921,332.10526 0,57.89474 13.19299,0 0,-22.87719 17.68421,22.87719 16.77193,0 -19.92983,-23.92982 c 7.08772,-2.24562 11.85965,-8.07018 11.85965,-16.77193 0,-11.36842 -8.14035,-17.19299 -18.87719,-17.19299 l -20.70176,0 z m 13.19299,25.68421 0,-15.15789 1.54386,0 c 4.98245,0 10.94736,0.35088 10.94736,7.57895 0,7.22807 -5.96491,7.57894 -10.94736,7.57894 l -1.54386,0 z" id="path79" style="font-size:70.17543793px;font-family:'League Spartan';letter-spacing:5px;text-anchor:middle;fill:#000000"/>
		<path d="m 842.0543,332.10526 -12.21053,0 L 806.47535,390 l 14.17544,0 4.2807,-11.57895 22.03509,0 4.2807,11.57895 14.17544,0 -23.36842,-57.89474 z m 0.42105,34.73685 -13.05263,0 6.45614,-16.84211 0.14035,0 6.45614,16.84211 z" id="path81" style="font-size:70.17543793px;font-family:'League Spartan';letter-spacing:5px;text-anchor:middle;fill:#000000"/>
		<path d="m 911.00275,390 14.59649,0 16.49123,-57.89474 -14.59649,0 -9.89474,39.7193 -0.35088,0 -10.52631,-39.7193 -9.96491,0 -10.52632,39.7193 -0.35088,0 -9.89473,-39.7193 -14.66667,0 16.49123,57.89474 14.66666,0 9.26316,-32.49123 L 911.00275,390 Z" id="path83" style="font-size:70.17543793px;font-family:'League Spartan';letter-spacing:5px;text-anchor:middle;fill:#000000"/>
		<path d="m 983.7286,332.10526 -33.47369,0 0,57.89474 13.19299,0 0,-23.22807 18.73684,0 0,-11.57895 -18.73684,0 0,-11.50877 20.2807,0 0,-11.57895 z" id="path85" style="font-size:70.17543793px;font-family:'League Spartan';letter-spacing:5px;text-anchor:middle;fill:#000000"/>
		<path d="m 992.40623,361.01754 c 0,16.91228 12.07017,30.03509 29.19297,30.03509 16.6316,0 29.1228,-13.12281 29.1228,-30.03509 0,-16.91228 -13.0526,-29.96491 -29.1228,-29.96491 -15.9298,0 -29.19297,13.05263 -29.19297,29.96491 z m 14.24557,0 c 0,-8.63157 4.772,-17.26315 14.9474,-17.26315 10.2456,0 14.8772,8.63158 14.8772,17.26315 0,8.63158 -4.3509,17.26316 -14.8772,17.26316 -10.807,0 -14.9474,-8.63158 -14.9474,-17.26316 z" id="path87" style="font-size:70.17543793px;font-family:'League Spartan';letter-spacing:5px;text-anchor:middle;fill:#000000"/>
		<path d="m 1061.5433,332.10526 0,57.89474 13.193,0 0,-22.87719 17.6842,22.87719 16.7719,0 -19.9298,-23.92982 c 7.0877,-2.24562 11.8597,-8.07018 11.8597,-16.77193 0,-11.36842 -8.1404,-17.19299 -18.8772,-17.19299 l -20.7018,0 z m 13.193,25.68421 0,-15.15789 1.5438,0 c 4.9825,0 10.9474,0.35088 10.9474,7.57895 0,7.22807 -5.9649,7.57894 -10.9474,7.57894 l -1.5438,0 z" id="path89" style="font-size:70.17543793px;font-family:'League Spartan';letter-spacing:5px;text-anchor:middle;fill:#000000"/>
		<path d="m 1116.8448,332.10526 0,57.89474 16.7719,0 c 15.9299,0 29.193,-12.07018 29.193,-28.98246 0,-16.8421 -13.3333,-28.91228 -29.193,-28.91228 l -16.7719,0 z m 13.193,46.10527 0,-34.31579 2.0351,0 c 9.8246,0 16.4912,7.50877 16.4912,17.19298 -0.07,9.68421 -6.7368,17.12281 -16.4912,17.12281 l -2.0351,0 z" id="path91" style="font-size:70.17543793px;font-family:'League Spartan';letter-spacing:5px;text-anchor:middle;fill:#000000"/>
	</g>
</svg>
