<?xml version="1.0" encoding="utf-8"?>
<svg xmlns="http://www.w3.org/2000/svg" xmlns:svg="http://www.w3.org/2000/svg" version="1.1" viewBox="0 0 1400 440">
	<title>The titlepage for the Standard Ebooks edition of Khaled: A Tale of Arabia, by F. Marion Crawford</title>
	<g aria-label="KHALED:">
		<path d="M 547.34137,130 511.41155,89.391812 542.47587,52.807016 H 521.14254 L 494.66301,84.33918 V 52.807016 H 477.07236 V 130 h 17.59065 V 97.251461 L 523.10745,130 Z"/>
		<path d="m 573.31067,99.029239 h 24.88889 V 130 H 615.7902 V 52.807016 H 598.19956 V 83.590642 H 573.31067 V 52.807016 H 555.72002 V 130 h 17.59065 z"/>
		<path d="m 671.19663,52.807016 h -16.2807 L 623.75803,130 h 18.90059 l 5.7076,-15.4386 h 29.38012 L 683.45394,130 h 18.90059 z m 0.5614,46.31579 h -17.40351 l 8.60819,-22.45614 h 0.18714 z"/>
		<path d="M 727.86476,52.807016 H 710.27412 V 130 h 44.16374 v -15.4386 h -26.5731 z"/>
		<path d="M 812.25219,52.807016 H 768.08845 V 130 h 44.16374 v -15.4386 h -26.5731 V 99.029239 h 25.45029 V 83.590642 H 785.67909 V 68.245613 h 26.5731 z"/>
		<path d="M 827.36478,52.807016 V 130 h 22.36258 c 21.23976,0 38.92397,-16.09357 38.92397,-38.643276 0,-22.45614 -17.77777,-38.549708 -38.92397,-38.549708 z M 844.95543,114.2807 V 68.526315 h 2.71345 c 13.09941,0 21.9883,10.011696 21.9883,22.923977 -0.0936,12.912278 -8.98245,22.830408 -21.9883,22.830408 z"/>
		<path d="m 912.11037,78.163742 c -5.89474,0 -10.66667,4.77193 -10.66667,10.760234 0,5.894737 4.77193,10.666667 10.66667,10.666667 5.9883,0 10.76023,-4.77193 10.76023,-10.666667 0,-5.988304 -4.77193,-10.760234 -10.76023,-10.760234 z m 0,31.812868 c -5.89474,0 -10.66667,4.77193 -10.66667,10.76023 0,5.89474 4.77193,10.66667 10.66667,10.66667 5.9883,0 10.76023,-4.77193 10.76023,-10.66667 0,-5.9883 -4.77193,-10.76023 -10.76023,-10.76023 z"/>
	</g>
	<g aria-label="A TALE OF ARABIA">
		<path d="m 262.23464,152.80702 h -16.2807 L 214.79604,230 h 18.90059 l 5.7076,-15.4386 h 29.38012 L 274.49195,230 h 18.90059 z m 0.56141,46.31579 h -17.40351 l 8.60818,-22.45614 h 0.18714 z"/>
		<path d="M 322.46271,168.24561 H 340.8019 V 230 h 17.59064 v -61.75439 h 18.33918 v -15.43859 h -54.26901 z"/>
		<path d="M 422.70248,152.80702 H 406.42177 L 375.26388,230 h 18.90058 l 5.70761,-15.4386 h 29.38011 L 434.95979,230 h 18.90058 z m 0.5614,46.31579 h -17.40351 l 8.60819,-22.45614 h 0.18713 z"/>
		<path d="M 479.37061,152.80702 H 461.77996 V 230 h 44.16375 v -15.4386 h -26.5731 z"/>
		<path d="M 563.75804,152.80702 H 519.59429 V 230 h 44.16375 v -15.4386 h -26.5731 v -15.53216 h 25.45029 v -15.4386 h -25.45029 v -15.34503 h 26.5731 z"/>
		<path d="m 605.99342,191.35672 c 0,22.54971 16.09357,40.04679 38.92398,40.04679 22.17544,0 38.83041,-17.49708 38.83041,-40.04679 0,-22.5497 -17.40351,-39.95321 -38.83041,-39.95321 -21.23977,0 -38.92398,17.40351 -38.92398,39.95321 z m 18.99415,0 c 0,-11.50877 6.36258,-23.01754 19.92983,-23.01754 13.66082,0 19.83626,11.50877 19.83626,23.01754 0,11.50878 -5.80117,23.01755 -19.83626,23.01755 -14.40936,0 -19.92983,-11.50877 -19.92983,-23.01755 z"/>
		<path d="M 741.14107,152.80702 H 696.50949 V 230 h 17.59064 v -30.97076 h 24.98246 v -15.4386 h -24.98246 v -15.34503 h 27.04094 z"/>
		<path d="m 824.29604,152.80702 h -16.2807 L 776.85745,230 h 18.90058 l 5.7076,-15.4386 h 29.38012 L 836.55335,230 h 18.90059 z m 0.56141,46.31579 h -17.40351 l 8.60819,-22.45614 h 0.18713 z"/>
		<path d="M 863.37353,152.80702 V 230 h 17.59064 V 199.49708 L 904.54312,230 h 22.36257 l -26.5731,-31.90643 c 9.4503,-2.99416 15.81287,-10.76024 15.81287,-22.36258 0,-15.15789 -10.8538,-22.92397 -25.16959,-22.92397 z m 17.59064,34.24561 V 166.8421 h 2.05848 c 6.64328,0 14.59649,0.46784 14.59649,10.10527 0,9.63742 -7.95321,10.10526 -14.59649,10.10526 z"/>
		<path d="m 974.64693,152.80702 h -16.2807 L 927.20834,230 h 18.90058 l 5.7076,-15.4386 h 29.38012 L 986.90424,230 h 18.90056 z m 0.56141,46.31579 h -17.40351 l 8.60819,-22.45614 h 0.18713 z"/>
		<path d="M 1013.7244,152.80702 V 230 h 29.2866 c 16,0 25.2631,-8.79532 25.2631,-21.52047 0,-12.44444 -6.8304,-17.77778 -16.4678,-19.46199 6.5497,-3.36842 9.6374,-9.45029 9.6374,-16.5614 0,-14.69006 -10.4795,-19.64912 -23.7661,-19.64912 z m 17.5907,30.22222 v -16.65497 h 1.4035 c 7.6725,0 11.6959,2.33918 11.6959,7.85965 0,6.45614 -4.117,8.79532 -11.6959,8.79532 z m 0,33.40351 v -18.24562 h 5.5204 c 8.3275,0 12.9123,2.52632 12.9123,9.63743 0,6.08187 -4.5848,8.60819 -12.9123,8.60819 z"/>
		<path d="m 1098.6323,152.80702 h -17.5906 V 230 h 17.5906 z"/>
		<path d="m 1154.1206,152.80702 h -16.2807 L 1106.682,230 h 18.9006 l 5.7076,-15.4386 h 29.3801 L 1166.3779,230 h 18.9006 z m 0.5614,46.31579 h -17.4035 l 8.6082,-22.45614 h 0.1871 z"/>
	</g>
	<g aria-label="F. MARION CRAWFORD">
		<path d="M 273.24068,332.10526 H 239.767 V 390 h 13.19298 v -23.22807 h 18.73684 v -11.57895 h -18.73684 v -11.50877 h 20.2807 z"/>
		<path d="m 288.95121,374.98246 c -4.42105,0 -8,3.57894 -8,8.07017 0,4.42105 3.57895,8 8,8 4.49123,0 8.07018,-3.57895 8.07018,-8 0,-4.49123 -3.57895,-8.07017 -8.07018,-8.07017 z"/>
		<path d="m 382.53345,390 h 13.19298 l -5.19298,-57.89474 h -14.03509 l -12.84211,33.40351 -12.8421,-33.40351 H 336.77906 L 331.58608,390 h 13.19298 l 2.73684,-34.31579 h 0.35088 l 11.85965,33.96491 h 7.85965 l 11.85965,-33.96491 h 0.35088 z"/>
		<path d="M 435.41501,332.10526 H 423.20449 L 399.83607,390 h 14.17544 l 4.2807,-11.57895 H 440.3273 L 444.608,390 h 14.17544 z m 0.42106,34.73685 H 422.78344 L 429.23958,350 h 0.14035 z"/>
		<path d="M 465.97315,332.10526 V 390 h 13.19298 V 367.12281 L 496.85034,390 h 16.77193 l -19.92983,-23.92982 c 7.08772,-2.24562 11.85965,-8.07018 11.85965,-16.77193 0,-11.36842 -8.14035,-17.19299 -18.87719,-17.19299 z m 13.19298,25.68421 v -15.15789 h 1.54386 c 4.98245,0 10.94737,0.35088 10.94737,7.57895 0,7.22807 -5.96492,7.57894 -10.94737,7.57894 z"/>
		<path d="M 534.46764,332.10526 H 521.27466 V 390 h 13.19298 z"/>
		<path d="m 545.33387,361.01754 c 0,16.91228 12.07017,30.03509 29.19298,30.03509 16.63158,0 29.12281,-13.12281 29.12281,-30.03509 0,-16.91228 -13.05263,-29.96491 -29.12281,-29.96491 -15.92982,0 -29.19298,13.05263 -29.19298,29.96491 z m 14.24561,0 c 0,-8.63157 4.77193,-17.26315 14.94737,-17.26315 10.24562,0 14.87719,8.63158 14.87719,17.26315 0,8.63158 -4.35087,17.26316 -14.87719,17.26316 -10.80702,0 -14.94737,-8.63158 -14.94737,-17.26316 z"/>
		<path d="m 627.66393,354.07018 h 0.14035 L 650.82183,390 h 13.19298 v -57.89474 h -13.19298 v 35.92983 h -0.14036 L 627.66393,332.10526 H 614.47095 V 390 h 13.19298 z"/>
		<path d="m 730.25053,378.07018 c -13.26316,0 -19.08772,-9.26316 -19.08772,-17.05264 0,-7.71929 5.82456,-16.98245 19.08772,-16.98245 6.73684,0 11.36842,3.57895 11.36842,3.57895 l 5.61404,-11.22807 c 0,0 -6.45614,-5.33334 -19.01755,-5.33334 -16.42105,0 -31.36842,13.47369 -31.36842,30.10527 0,16.5614 15.01755,29.89473 31.36842,29.89473 12.56141,0 19.01755,-5.33333 19.01755,-5.33333 l -5.61404,-11.22807 c 0,0 -4.63158,3.57895 -11.36842,3.57895 z"/>
		<path d="M 757.34921,332.10526 V 390 H 770.5422 V 367.12281 L 788.22641,390 h 16.77193 l -19.92983,-23.92982 c 7.08772,-2.24562 11.85965,-8.07018 11.85965,-16.77193 0,-11.36842 -8.14035,-17.19299 -18.87719,-17.19299 z m 13.19299,25.68421 v -15.15789 h 1.54386 c 4.98245,0 10.94736,0.35088 10.94736,7.57895 0,7.22807 -5.96491,7.57894 -10.94736,7.57894 z"/>
		<path d="M 842.0543,332.10526 H 829.84377 L 806.47535,390 h 14.17544 l 4.2807,-11.57895 h 22.03509 L 851.24728,390 h 14.17544 z m 0.42105,34.73685 H 829.42272 L 835.87886,350 h 0.14035 z"/>
		<path d="m 911.00275,390 h 14.59649 l 16.49123,-57.89474 h -14.59649 l -9.89474,39.7193 h -0.35088 l -10.52631,-39.7193 h -9.96491 l -10.52632,39.7193 h -0.35088 l -9.89473,-39.7193 H 861.31854 L 877.80977,390 h 14.66666 l 9.26316,-32.49123 z"/>
		<path d="M 983.7286,332.10526 H 950.25491 V 390 h 13.19299 v -23.22807 h 18.73684 V 355.19298 H 963.4479 v -11.50877 h 20.2807 z"/>
		<path d="m 992.40623,361.01754 c 0,16.91228 12.07017,30.03509 29.19297,30.03509 16.6316,0 29.1228,-13.12281 29.1228,-30.03509 0,-16.91228 -13.0526,-29.96491 -29.1228,-29.96491 -15.9298,0 -29.19297,13.05263 -29.19297,29.96491 z m 14.24557,0 c 0,-8.63157 4.772,-17.26315 14.9474,-17.26315 10.2456,0 14.8772,8.63158 14.8772,17.26315 0,8.63158 -4.3509,17.26316 -14.8772,17.26316 -10.807,0 -14.9474,-8.63158 -14.9474,-17.26316 z"/>
		<path d="M 1061.5433,332.10526 V 390 h 13.193 V 367.12281 L 1092.4205,390 h 16.7719 l -19.9298,-23.92982 c 7.0877,-2.24562 11.8597,-8.07018 11.8597,-16.77193 0,-11.36842 -8.1404,-17.19299 -18.8772,-17.19299 z m 13.193,25.68421 v -15.15789 h 1.5438 c 4.9825,0 10.9474,0.35088 10.9474,7.57895 0,7.22807 -5.9649,7.57894 -10.9474,7.57894 z"/>
		<path d="M 1116.8448,332.10526 V 390 h 16.7719 c 15.9299,0 29.193,-12.07018 29.193,-28.98246 0,-16.8421 -13.3333,-28.91228 -29.193,-28.91228 z m 13.193,46.10527 v -34.31579 h 2.0351 c 9.8246,0 16.4912,7.50877 16.4912,17.19298 -0.07,9.68421 -6.7368,17.12281 -16.4912,17.12281 z"/>
	</g>
</svg>
